<?xml version="1.0" standalone="yes"?>
<svg xmlns="http://www.w3.org/2000/svg" xmlns:xlink="http://www.w3.org/1999/xlink" xmlns:svg="http://www.w3.org/2000/svg" xmlns:dc="http://purl.org/dc/elements/1.1/" xmlns:cc="http://web.resource.org/cc/" xmlns:rdf="http://www.w3.org/1999/02/22-rdf-syntax-ns#" width="300" height="450">
<path style="fill:#ffffff; stroke:none;" d="M0 0L0 450L300 450L300 0L0 0z"/>
<path style="fill:#212121; stroke:none;" d="M286 388L285 388C276.789 407.617 260.474 409.815 242 414.374C209.4 422.42 176.611 429.618 144 437.626C127.936 441.571 112.1 443.474 100.379 428.996C93.7713 420.834 92.6012 409.899 90.1265 400C84.976 379.398 80.7165 358.628 75.6258 338C61.5137 280.816 48.7025 223.31 35.1157 166C30.3767 146.011 25.3296 126.066 20.9853 106C19.0415 97.0216 15.6204 88.2953 16.0394 79C16.681 64.7643 27.8717 53.6813 41 49.7215C77.168 38.8121 115.169 31.8795 152 23.5008C170.204 19.3594 186.466 14.2922 200.906 30.0008C208.629 38.4025 209.756 49.3907 212.374 60C217.377 80.27 221.981 100.651 226.651 121C238.986 174.749 252.316 228.251 264.651 282C269.948 305.079 277.843 328.555 281 352C283.498 345.876 279.59 337.195 278.207 331C274.18 312.961 269.583 295.045 265.576 277C252.081 216.239 237.512 155.441 222.475 95C217.356 74.4242 216.633 40.2163 199.91 25.3287C186.548 13.4337 170.599 17.418 155 20.7901C122.539 27.8075 90.4282 36.3714 58 43.5756C39.8051 47.6178 22.6567 51.6616 15.4645 71C12.0877 80.0794 15.2815 89.9916 17.3488 99C21.3292 116.345 25.2823 133.721 29.5255 151C45.9337 217.819 61.7512 284.904 76.9892 352C80.7818 368.699 84.8911 385.322 88.7647 402C91.6766 414.538 93.4119 426.956 104.004 435.66C117.783 446.984 134.417 441.809 150 438.116C183.644 430.142 217.45 422.709 251 414.373C265.443 410.785 284.164 405.831 286 388z"/>
<path style="fill:#666666; stroke:none;" d="M174 18L174 19L180 19L174 18z"/>
<path style="fill:#cbcbcb; stroke:none;" d="M168 19.4391C133.356 24.8921 99.3154 36.4405 65 43.7153C49.8054 46.9365 30.4251 48.9918 21.1049 63C9.85368 79.9107 19.7937 104.197 24.3704 122C36.2206 168.097 45.5858 214.825 57.1265 261C68.7534 307.519 78.5076 354.524 90.1265 401C95.6713 423.179 103.464 444.112 131 440.816C167.421 436.455 205.377 423.768 241 414.873C255.768 411.186 272.723 410.29 281.532 396C292.236 378.635 282.303 352.97 277.424 335C265.068 289.483 255.766 242.9 244.884 197L219.884 91C215.749 73.5803 213.818 53.2955 206.33 37C199.402 21.9215 183.435 17.0095 168 19.4391z"/>
<path style="fill:#010101; stroke:none;" d="M167 23.4645C133.481 29.495 100.153 39.2452 67 47.1157C53.3354 50.3597 35.7211 51.6999 26.7886 64.0038C14.635 80.7448 24.185 102.96 28.2068 121C38.6358 167.782 50.0414 214.351 61.1157 261C72.3423 308.29 83.8859 355.549 94.4244 403C98.5431 421.545 109.844 440.001 132 436.671C166.665 431.462 201.972 420.634 236 412.127C249.852 408.663 266.829 407.683 275.779 394.985C287.894 377.799 278.437 354.283 273.731 336C261.957 290.257 253.084 243.784 241.37 198C233.839 168.564 226.338 138.74 220.12 109C215.794 88.314 212.236 66.0037 205.478 46C199.971 29.6994 183.893 20.4251 167 23.4645z"/>
<path style="fill:#6e6e6e; stroke:none;" d="M158.667 25.3333L159.333 25.6667L158.667 25.3333z"/>
<path style="fill:#878787; stroke:none;" d="M126.667 27.3333L127.333 27.6667L126.667 27.3333z"/>
<path style="fill:#7d7d7d; stroke:none;" d="M105.667 32.3333L106.333 32.6667L105.667 32.3333z"/>
<path style="fill:#6a6a6a; stroke:none;" d="M120.667 34.3333L121.333 34.6667L120.667 34.3333z"/>
<path style="fill:#666666; stroke:none;" d="M46.6667 46.3333L47.3333 46.6667L46.6667 46.3333z"/>
<path style="fill:#ffffff; stroke:none;" d="M106.746 49.0324C102.875 52.1136 107.638 57.6717 111.681 54.9676C116.172 51.9645 110.521 46.0277 106.746 49.0324z"/>
<path style="fill:#858585; stroke:none;" d="M107 56L107 57L111 57L107 56z"/>
<path style="fill:#9c9c9c; stroke:none;" d="M126.667 57.3333L127.333 57.6667L126.667 57.3333z"/>
<path style="fill:#ffffff; stroke:none;" d="M92 65L92 69C101.918 68.3271 112.348 64.7796 122 62.3704C125.936 61.388 130.744 61.294 132 57L92 65z"/>
<path style="fill:#6a6a6a; stroke:none;" d="M208.333 58.6667L208.667 59.3333L208.333 58.6667z"/>
<path style="fill:#878787; stroke:none;" d="M117 59L117 60L120 60L117 59z"/>
<path style="fill:#828282; stroke:none;" d="M129 60L129 61L132 61L129 60z"/>
<path style="fill:#6e6e6e; stroke:none;" d="M125 61L125 62L128 62L125 61z"/>
<path style="fill:#747474; stroke:none;" d="M104.667 62.3333L105.333 62.6667L104.667 62.3333z"/>
<path style="fill:#6e6e6e; stroke:none;" d="M209 62L209 65L210 65L209 62z"/>
<path style="fill:#8f8f8f; stroke:none;" d="M96.6667 64.3333L97.3333 64.6667L96.6667 64.3333z"/>
<path style="fill:#858585; stroke:none;" d="M112.667 64.3333L113.333 64.6667L112.667 64.3333z"/>
<path style="fill:#828282; stroke:none;" d="M187.667 64.3333L188.333 64.6667L187.667 64.3333z"/>
<path style="fill:#ffffff; stroke:none;" d="M42 99C42.9772 121.701 52.2676 145.859 57.3488 168C68.3803 216.07 80.2609 263.94 91.3488 312C95.5781 330.332 99.6891 348.716 104.13 367C105.49 372.603 106.101 384.14 110.09 388.382C112.304 390.738 116.379 389.023 119 388.373C126.978 386.395 134.989 384.49 143 382.651C172.041 375.987 201.044 369.162 230 362.13C235.837 360.712 255.765 359.609 258.382 353.697C260.543 348.812 255.876 337.115 254.626 332C250.064 313.331 245.629 294.675 241.13 276C229.591 228.091 218.373 180.049 207.501 132C202.563 110.178 192.974 86.3371 192 64L42 99z"/>
<path style="fill:#787878; stroke:none;" d="M108.667 65.3333L109.333 65.6667L108.667 65.3333z"/>
<path style="fill:#8c8c8c; stroke:none;" d="M183.667 65.3333L184.333 65.6667L183.667 65.3333z"/>
<path style="fill:#6a6a6a; stroke:none;" d="M91.3333 66.6667L91.6667 67.3333L91.3333 66.6667z"/>
<path style="fill:#666666; stroke:none;" d="M104.667 66.3333L105.333 66.6667L104.667 66.3333z"/>
<path style="fill:#a0a0a0; stroke:none;" d="M179.667 66.3333L180.333 66.6667L179.667 66.3333z"/>
<path style="fill:#ffffff; stroke:none;" d="M76.3133 67.8009C72.3662 69.3987 74.6529 76.3046 78.8711 75.1096C83.7984 73.7136 81.0982 65.864 76.3133 67.8009z"/>
<path style="fill:#717171; stroke:none;" d="M174 67L174 68L177 68L174 67z"/>
<path style="fill:#181818; stroke:none;" d="M152 76L152 77L187 70L194.349 104L211 176L212 176L205.235 143L188 68L152 76z"/>
<path style="fill:#a0a0a0; stroke:none;" d="M192.333 68.6667L192.667 69.3333L192.333 68.6667z"/>
<path style="fill:#8c8c8c; stroke:none;" d="M166.667 69.3333L167.333 69.6667L166.667 69.3333z"/>
<path style="fill:#828282; stroke:none;" d="M73 70L73 73L74 73L73 70z"/>
<path style="fill:#ffffff; stroke:none;" d="M47 102C49.399 131.372 60.4952 162.371 67.5255 191C77.648 232.222 86.3036 273.786 96.4745 315C101.885 336.924 110.161 360.489 112 383L150 374.651L252 351C249.052 327.795 241.549 304.759 236.235 282C226.2 239.018 216.795 195.825 206.105 153C199.465 126.4 189.174 97.3124 187 70L152 77.7646L47 102z"/>
<path style="fill:#929292; stroke:none;" d="M173.667 72.3333L174.333 72.6667L173.667 72.3333z"/>
<path style="fill:#8c8c8c; stroke:none;" d="M193.333 72.6667L193.667 73.3333L193.333 72.6667z"/>
<path style="fill:#9c9c9c; stroke:none;" d="M149.667 73.3333L150.333 73.6667L149.667 73.3333z"/>
<path style="fill:#878787; stroke:none;" d="M153.667 75.3333L154.333 75.6667L153.667 75.3333z"/>
<path style="fill:#828282; stroke:none;" d="M160.667 75.3333L161.333 75.6667L160.667 75.3333z"/>
<path style="fill:#7d7d7d; stroke:none;" d="M136.667 76.3333L137.333 76.6667L136.667 76.3333z"/>
<path style="fill:#666666; stroke:none;" d="M149 76L149 77L152 77L149 76z"/>
<path style="fill:#929292; stroke:none;" d="M132.667 77.3333L133.333 77.6667L132.667 77.3333z"/>
<path style="fill:#070707; stroke:none;" d="M96 89L96 90L152 78L136 79.7145L96 89z"/>
<path style="fill:#9c9c9c; stroke:none;" d="M152.667 77.3333L153.333 77.6667L152.667 77.3333z"/>
<path style="fill:#7d7d7d; stroke:none;" d="M218 77L218 80L219 80L218 77z"/>
<path style="fill:#3d3d3d; stroke:none;" d="M20 78L20 88L21 88L20 78z"/>
<path style="fill:#a0a0a0; stroke:none;" d="M128.667 78.3333L129.333 78.6667L128.667 78.3333z"/>
<path style="fill:#858585; stroke:none;" d="M188.333 78.6667L188.667 79.3333L188.333 78.6667z"/>
<path style="fill:#8c8c8c; stroke:none;" d="M136.667 79.3333L137.333 79.6667L136.667 79.3333z"/>
<path style="fill:#7d7d7d; stroke:none;" d="M119.667 80.3333L120.333 80.6667L119.667 80.3333z"/>
<path style="fill:#747474; stroke:none;" d="M195.333 80.6667L195.667 81.3333L195.333 80.6667z"/>
<path style="fill:#8c8c8c; stroke:none;" d="M115.667 81.3333L116.333 81.6667L115.667 81.3333z"/>
<path style="fill:#7d7d7d; stroke:none;" d="M102.667 84.3333L103.333 84.6667L102.667 84.3333M115.667 84.3333L116.333 84.6667L115.667 84.3333z"/>
<path style="fill:#999999; stroke:none;" d="M118.667 85.3333L119.333 85.6667L118.667 85.3333z"/>
<path style="fill:#929292; stroke:none;" d="M94.6667 86.3333L95.3333 86.6667L94.6667 86.3333z"/>
<path style="fill:#666666; stroke:none;" d="M94.6667 89.3333L95.3333 89.6667L94.6667 89.3333z"/>
<path style="fill:#929292; stroke:none;" d="M197.333 89.6667L197.667 90.3333L197.333 89.6667z"/>
<path style="fill:#181818; stroke:none;" d="M45 101L62.5255 177L99 333L100 333C99.0086 309.968 89.8629 285.352 84.3742 263C75.8886 228.444 68.3257 193.63 60.1157 159C55.6722 140.257 49.5696 121.083 47 102L96 91L81 92.5756L45 101z"/>
<path style="fill:#6a6a6a; stroke:none;" d="M96.6667 90.3333L97.3333 90.6667L96.6667 90.3333z"/>
<path style="fill:#717171; stroke:none;" d="M72.6667 91.3333L73.3333 91.6667L72.6667 91.3333z"/>
<path style="fill:#6a6a6a; stroke:none;" d="M21.3333 92.6667L21.6667 93.3333L21.3333 92.6667z"/>
<path style="fill:#8c8c8c; stroke:none;" d="M64.6667 93.3333L65.3333 93.6667L64.6667 93.3333M198 93L198 96L199 96L198 93z"/>
<path style="fill:#999999; stroke:none;" d="M60.6667 94.3333L61.3333 94.6667L60.6667 94.3333z"/>
<path style="fill:#828282; stroke:none;" d="M222.333 94.6667L222.667 95.3333L222.333 94.6667z"/>
<path style="fill:#666666; stroke:none;" d="M22.3333 96.6667L22.6667 97.3333L22.3333 96.6667z"/>
<path style="fill:#878787; stroke:none;" d="M47.6667 97.3333L48.3333 97.6667L47.6667 97.3333z"/>
<path style="fill:#929292; stroke:none;" d="M43.6667 98.3333L44.3333 98.6667L43.6667 98.3333z"/>
<path style="fill:#8f8f8f; stroke:none;" d="M41 99L41 102L42 102L41 99z"/>
<path style="fill:#5a5a5a; stroke:none;" d="M23.3333 100.667L23.6667 101.333L23.3333 100.667z"/>
<path style="fill:#7d7d7d; stroke:none;" d="M47.6667 100.333L48.3333 100.667L47.6667 100.333z"/>
<path style="fill:#9c9c9c; stroke:none;" d="M200.333 102.667L200.667 103.333L200.333 102.667z"/>
<path style="fill:#7d7d7d; stroke:none;" d="M42.3333 104.667L42.6667 105.333L42.3333 104.667z"/>
<path style="fill:#969696; stroke:none;" d="M45.3333 104.667L45.6667 105.333L45.3333 104.667z"/>
<path style="fill:#929292; stroke:none;" d="M201.333 106.667L201.667 107.333L201.333 106.667z"/>
<path style="fill:#666666; stroke:none;" d="M220 109L220 112L221 112L220 109z"/>
<path style="fill:#858585; stroke:none;" d="M202.333 110.667L202.667 111.333L202.333 110.667z"/>
<path style="fill:#828282; stroke:none;" d="M226.333 111.667L226.667 112.333L226.333 111.667z"/>
<path style="fill:#969696; stroke:none;" d="M44.3333 112.667L44.6667 113.333L44.3333 112.667z"/>
<path style="fill:#8c8c8c; stroke:none;" d="M196.333 112.667L196.667 113.333L196.333 112.667z"/>
<path style="fill:#616161; stroke:none;" d="M27 117L27 120L28 120L27 117M45.3333 117.667L45.6667 118.333L45.3333 117.667z"/>
<path style="fill:#666666; stroke:none;" d="M204 118L204 121L205 121L204 118z"/>
<path style="fill:#616161; stroke:none;" d="M222.333 118.667L222.667 119.333L222.333 118.667z"/>
<path style="fill:#9c9c9c; stroke:none;" d="M22.3333 120.667L22.6667 121.333L22.3333 120.667z"/>
<path style="fill:#828282; stroke:none;" d="M206.333 127.667L206.667 128.333L206.333 127.667z"/>
<path style="fill:#787878; stroke:none;" d="M24.3333 128.667L24.6667 129.333L24.3333 128.667z"/>
<path style="fill:#878787; stroke:none;" d="M230.333 128.667L230.667 129.333L230.333 128.667z"/>
<path style="fill:#9c9c9c; stroke:none;" d="M208.333 136.667L208.667 137.333L208.333 136.667z"/>
<path style="fill:#747474; stroke:none;" d="M50.3333 138.667L50.6667 139.333L50.3333 138.667z"/>
<path style="fill:#8f8f8f; stroke:none;" d="M209.333 140.667L209.667 141.333L209.333 140.667z"/>
<path style="fill:#878787; stroke:none;" d="M51.3333 142.667L51.6667 143.333L51.3333 142.667z"/>
<path style="fill:#858585; stroke:none;" d="M54.3333 142.667L54.6667 143.333L54.3333 142.667z"/>
<path style="fill:#828282; stroke:none;" d="M205.333 143.667L205.667 144.333L205.333 143.667z"/>
<path style="fill:#7d7d7d; stroke:none;" d="M210.333 144.667L210.667 145.333L210.333 144.667z"/>
<path style="fill:#8c8c8c; stroke:none;" d="M204.333 146.667L204.667 147.333L204.333 146.667z"/>
<path style="fill:#616161; stroke:none;" d="M53.3333 151.667L53.6667 152.333L53.3333 151.667M212.333 152.667L212.667 153.333L212.333 152.667M231.333 156.667L231.667 157.333L231.333 156.667z"/>
<path style="fill:#969696; stroke:none;" d="M213 157L213 160L214 160L213 157z"/>
<path style="fill:#929292; stroke:none;" d="M208.333 163.667L208.667 164.333L208.333 163.667z"/>
<path style="fill:#666666; stroke:none;" d="M57.3333 168.667L57.6667 169.333L57.3333 168.667z"/>
<path style="fill:#a0a0a0; stroke:none;" d="M211.333 168.667L211.667 169.333L211.333 168.667z"/>
<path style="fill:#6a6a6a; stroke:none;" d="M212 173L212 176L213 176L212 173z"/>
<path style="fill:#5a5a5a; stroke:none;" d="M235 173L235 176L236 176L235 173z"/>
<path style="fill:#7d7d7d; stroke:none;" d="M217.333 174.667L217.667 175.333L217.333 174.667z"/>
<path style="fill:#878787; stroke:none;" d="M62.3333 176.667L62.6667 177.333L62.3333 176.667z"/>
<path style="fill:#999999; stroke:none;" d="M211.333 176.667L211.667 177.333L211.333 176.667z"/>
<path style="fill:#2c2c2c; stroke:none;" d="M212 176L220.525 215L241 304L242 304L236.804 277L220.745 209L212 176z"/>
<path style="fill:#828282; stroke:none;" d="M218.333 178.667L218.667 179.333L218.333 178.667z"/>
<path style="fill:#6e6e6e; stroke:none;" d="M42 181L42 184L43 184L42 181M219.333 182.667L219.667 183.333L219.333 182.667z"/>
<path style="fill:#787878; stroke:none;" d="M213.333 184.667L213.667 185.333L213.333 184.667z"/>
<path style="fill:#616161; stroke:none;" d="M220 186L220 189L221 189L220 186z"/>
<path style="fill:#666666; stroke:none;" d="M62.3333 189.667L62.6667 190.333L62.3333 189.667z"/>
<path style="fill:#929292; stroke:none;" d="M67.3333 190.667L67.6667 191.333L67.3333 190.667z"/>
<path style="fill:#6a6a6a; stroke:none;" d="M239.333 190.667L239.667 191.333L239.333 190.667z"/>
<path style="fill:#929292; stroke:none;" d="M218.333 198.667L218.667 199.333L218.333 198.667z"/>
<path style="fill:#5a5a5a; stroke:none;" d="M47.3333 202.667L47.6667 203.333L47.3333 202.667z"/>
<path style="fill:#a0a0a0; stroke:none;" d="M224.333 204.667L224.667 205.333L224.333 204.667z"/>
<path style="fill:#747474; stroke:none;" d="M66.3333 206.667L66.6667 207.333L66.3333 206.667z"/>
<path style="fill:#6e6e6e; stroke:none;" d="M220.333 207.667L220.667 208.333L220.333 207.667z"/>
<path style="fill:#8c8c8c; stroke:none;" d="M225.333 208.667L225.667 209.333L225.333 208.667M44 213L44 216L45 216L44 213z"/>
<path style="fill:#747474; stroke:none;" d="M250 213L250 216L251 216L250 213z"/>
<path style="fill:#999999; stroke:none;" d="M68.3333 214.667L68.6667 215.333L68.3333 214.667z"/>
<path style="fill:#878787; stroke:none;" d="M220.333 214.667L220.667 215.333L220.333 214.667z"/>
<path style="fill:#717171; stroke:none;" d="M227.333 216.667L227.667 217.333L227.333 216.667z"/>
<path style="fill:#999999; stroke:none;" d="M75.3333 224.667L75.6667 225.333L75.3333 224.667z"/>
<path style="fill:#8c8c8c; stroke:none;" d="M230 229L230 232L231 232L230 229z"/>
<path style="fill:#878787; stroke:none;" d="M48 230L48 233L49 233L48 230z"/>
<path style="fill:#8c8c8c; stroke:none;" d="M254.333 230.667L254.667 231.333L254.333 230.667z"/>
<path style="fill:#6a6a6a; stroke:none;" d="M55 236L55 239L56 239L55 236z"/>
<path style="fill:#5d5d5d; stroke:none;" d="M73.3333 236.667L73.6667 237.333L73.3333 236.667z"/>
<path style="fill:#9c9c9c; stroke:none;" d="M232.333 238.667L232.667 239.333L232.333 238.667z"/>
<path style="fill:#787878; stroke:none;" d="M74.3333 240.667L74.6667 241.333L74.3333 240.667z"/>
<path style="fill:#999999; stroke:none;" d="M77.3333 240.667L77.6667 241.333L77.3333 240.667z"/>
<path style="fill:#a6a6a6; stroke:none;" d="M226.333 240.667L226.667 241.333L226.333 240.667z"/>
<path style="fill:#929292; stroke:none;" d="M233.333 242.667L233.667 243.333L233.333 242.667z"/>
<path style="fill:#858585; stroke:none;" d="M234.333 246.667L234.667 247.333L234.333 246.667z"/>
<path style="fill:#7d7d7d; stroke:none;" d="M258 247L258 250L259 250L258 247z"/>
<path style="fill:#969696; stroke:none;" d="M76.3333 248.667L76.6667 249.333L76.3333 248.667z"/>
<path style="fill:#8c8c8c; stroke:none;" d="M228.333 248.667L228.667 249.333L228.333 248.667z"/>
<path style="fill:#5a5a5a; stroke:none;" d="M77.3333 253.667L77.6667 254.333L77.3333 253.667z"/>
<path style="fill:#666666; stroke:none;" d="M236 254L236 257L237 257L236 254z"/>
<path style="fill:#a0a0a0; stroke:none;" d="M54.3333 256.667L54.6667 257.333L54.3333 256.667z"/>
<path style="fill:#6a6a6a; stroke:none;" d="M78.3333 257.667L78.6667 258.333L78.3333 257.667z"/>
<path style="fill:#929292; stroke:none;" d="M83.3333 258.667L83.6667 259.333L83.3333 258.667z"/>
<path style="fill:#747474; stroke:none;" d="M79 261L79 264L80 264L79 261z"/>
<path style="fill:#7d7d7d; stroke:none;" d="M238.333 263.667L238.667 264.333L238.333 263.667M56.3333 264.667L56.6667 265.333L56.3333 264.667M262.333 264.667L262.667 265.333L262.333 264.667z"/>
<path style="fill:#9c9c9c; stroke:none;" d="M240.333 272.667L240.667 273.333L240.333 272.667z"/>
<path style="fill:#666666; stroke:none;" d="M82.3333 274.667L82.6667 275.333L82.3333 274.667z"/>
<path style="fill:#8f8f8f; stroke:none;" d="M241.333 276.667L241.667 277.333L241.333 276.667z"/>
<path style="fill:#7d7d7d; stroke:none;" d="M83.3333 278.667L83.6667 279.333L83.3333 278.667z"/>
<path style="fill:#828282; stroke:none;" d="M237.333 279.667L237.667 280.333L237.333 279.667z"/>
<path style="fill:#7d7d7d; stroke:none;" d="M242.333 280.667L242.667 281.333L242.333 280.667z"/>
<path style="fill:#8f8f8f; stroke:none;" d="M236.333 282.667L236.667 283.333L236.333 282.667z"/>
<path style="fill:#616161; stroke:none;" d="M85.3333 287.667L85.6667 288.333L85.3333 287.667z"/>
<path style="fill:#666666; stroke:none;" d="M244.333 288.667L244.667 289.333L244.333 288.667z"/>
<path style="fill:#717171; stroke:none;" d="M86.3333 291.667L86.6667 292.333L86.3333 291.667z"/>
<path style="fill:#5d5d5d; stroke:none;" d="M263.333 292.667L263.667 293.333L263.333 292.667z"/>
<path style="fill:#929292; stroke:none;" d="M245 293L245 296L246 296L245 293z"/>
<path style="fill:#6a6a6a; stroke:none;" d="M70.3333 300.667L70.6667 301.333L70.3333 300.667z"/>
<path style="fill:#010101; stroke:none;" d="M242 303L246 324L247 324L242 303z"/>
<path style="fill:#616161; stroke:none;" d="M89.3333 304.667L89.6667 305.333L89.3333 304.667z"/>
<path style="fill:#9c9c9c; stroke:none;" d="M243.333 304.667L243.667 305.333L243.333 304.667z"/>
<path style="fill:#747474; stroke:none;" d="M90.3333 308.667L90.6667 309.333L90.3333 308.667z"/>
<path style="fill:#7d7d7d; stroke:none;" d="M249.333 310.667L249.667 311.333L249.333 310.667M91.3333 312.667L91.6667 313.333L91.3333 312.667z"/>
<path style="fill:#8c8c8c; stroke:none;" d="M94.3333 312.667L94.6667 313.333L94.3333 312.667z"/>
<path style="fill:#7d7d7d; stroke:none;" d="M245.333 313.667L245.667 314.333L245.333 313.667z"/>
<path style="fill:#828282; stroke:none;" d="M250.333 314.667L250.667 315.333L250.333 314.667z"/>
<path style="fill:#6e6e6e; stroke:none;" d="M269 317L269 320L270 320L269 317M251.333 318.667L251.667 319.333L251.333 318.667z"/>
<path style="fill:#969696; stroke:none;" d="M93.3333 320.667L93.6667 321.333L93.3333 320.667z"/>
<path style="fill:#7d7d7d; stroke:none;" d="M245.333 320.667L245.667 321.333L245.333 320.667z"/>
<path style="fill:#2c2c2c; stroke:none;" d="M247 322L252 351C246.433 351.455 235.49 352.41 232 357L254 352L247 322z"/>
<path style="fill:#666666; stroke:none;" d="M94 325L94 328L95 328L94 325z"/>
<path style="fill:#929292; stroke:none;" d="M99.3333 326.667L99.6667 327.333L99.3333 326.667z"/>
<path style="fill:#6a6a6a; stroke:none;" d="M271.333 326.667L271.667 327.333L271.333 326.667z"/>
<path style="fill:#929292; stroke:none;" d="M71.3333 328.667L71.6667 329.333L71.3333 328.667z"/>
<path style="fill:#313131; stroke:none;" d="M100 331C98.1179 348.276 108.689 367.84 111 385L141 379L141 378L112 383C111.365 368.444 106.843 343.849 100 331z"/>
<path style="fill:#8f8f8f; stroke:none;" d="M250.333 334.667L250.667 335.333L250.333 334.667z"/>
<path style="fill:#a0a0a0; stroke:none;" d="M256.333 340.667L256.667 341.333L256.333 340.667z"/>
<path style="fill:#717171; stroke:none;" d="M98.3333 342.667L98.6667 343.333L98.3333 342.667z"/>
<path style="fill:#8c8c8c; stroke:none;" d="M257.333 344.667L257.667 345.333L257.333 344.667z"/>
<path style="fill:#6e6e6e; stroke:none;" d="M99.3333 346.667L99.6667 347.333L99.3333 346.667z"/>
<path style="fill:#a6a6a6; stroke:none;" d="M251.333 346.667L251.667 347.333L251.333 346.667z"/>
<path style="fill:#8f8f8f; stroke:none;" d="M76 349L76 352L77 352L76 349z"/>
<path style="fill:#787878; stroke:none;" d="M282 349L282 352L283 352L282 349M100.333 350.667L100.667 351.333L100.333 350.667z"/>
<path style="fill:#858585; stroke:none;" d="M250.667 352.333L251.333 352.667L250.667 352.333z"/>
<path style="fill:#616161; stroke:none;" d="M259 352L258 356L259 352z"/>
<path style="fill:#373737; stroke:none;" d="M282 352L285.829 373L286 389L287 389C288.412 377.828 288.873 361.647 282 352z"/>
<path style="fill:#8c8c8c; stroke:none;" d="M246.667 353.333L247.333 353.667L246.667 353.333z"/>
<path style="fill:#010101; stroke:none;" d="M225 357L225 358L232 357L225 357z"/>
<path style="fill:#313131; stroke:none;" d="M216 359L216 360L226 359L216 359z"/>
<path style="fill:#616161; stroke:none;" d="M102.333 359.667L102.667 360.333L102.333 359.667z"/>
<path style="fill:#666666; stroke:none;" d="M214.667 359.333L215.333 359.667L214.667 359.333z"/>
<path style="fill:#929292; stroke:none;" d="M107.333 360.667L107.667 361.333L107.333 360.667z"/>
<path style="fill:#010101; stroke:none;" d="M191 365L191 366L216 361C209.267 358.26 197.907 363.417 191 365z"/>
<path style="fill:#7d7d7d; stroke:none;" d="M216.667 360.333L217.333 360.667L216.667 360.333z"/>
<path style="fill:#787878; stroke:none;" d="M205 361L205 362L208 362L205 361z"/>
<path style="fill:#969696; stroke:none;" d="M212.667 361.333L213.333 361.667L212.667 361.333z"/>
<path style="fill:#8f8f8f; stroke:none;" d="M232.667 361.333L233.333 361.667L232.667 361.333z"/>
<path style="fill:#747474; stroke:none;" d="M228.667 362.333L229.333 362.667L228.667 362.333z"/>
<path style="fill:#6e6e6e; stroke:none;" d="M224.667 363.333L225.333 363.667L224.667 363.333z"/>
<path style="fill:#858585; stroke:none;" d="M192.667 364.333L193.333 364.667L192.667 364.333z"/>
<path style="fill:#828282; stroke:none;" d="M199.667 364.333L200.333 364.667L199.667 364.333z"/>
<path style="fill:#373737; stroke:none;" d="M180 367L180 368L192 367L180 367z"/>
<path style="fill:#8c8c8c; stroke:none;" d="M286.333 366.667L286.667 367.333L286.333 366.667z"/>
<path style="fill:#616161; stroke:none;" d="M207.667 367.333L208.333 367.667L207.667 367.333z"/>
<path style="fill:#6a6a6a; stroke:none;" d="M86.3333 368.667L86.6667 369.333L86.3333 368.667z"/>
<path style="fill:#070707; stroke:none;" d="M162 372L162 373L182 369C176.361 366.7 167.571 370.11 162 372z"/>
<path style="fill:#494949; stroke:none;" d="M281 368L281 372L282 372L281 368z"/>
<path style="fill:#969696; stroke:none;" d="M178.667 369.333L179.333 369.667L178.667 369.333z"/>
<path style="fill:#7d7d7d; stroke:none;" d="M198.667 369.333L199.333 369.667L198.667 369.333z"/>
<path style="fill:#5a5a5a; stroke:none;" d="M105.333 372.667L105.667 373.333L105.333 372.667z"/>
<path style="fill:#858585; stroke:none;" d="M158.667 372.333L159.333 372.667L158.667 372.333z"/>
<path style="fill:#373737; stroke:none;" d="M146 375L146 376C151.088 375.986 158.564 376.253 162 372L146 375z"/>
<path style="fill:#616161; stroke:none;" d="M173.667 375.333L174.333 375.667L173.667 375.333M106.333 376.667L106.667 377.333L106.333 376.667z"/>
<path style="fill:#010101; stroke:none;" d="M140 377L140 378L148 377L140 377z"/>
<path style="fill:#7d7d7d; stroke:none;" d="M148.667 376.333L149.333 376.667L148.667 376.333z"/>
<path style="fill:#929292; stroke:none;" d="M168.667 376.333L169.333 376.667L168.667 376.333z"/>
<path style="fill:#9c9c9c; stroke:none;" d="M144.667 377.333L145.333 377.667L144.667 377.333z"/>
<path style="fill:#7d7d7d; stroke:none;" d="M160.667 378.333L161.333 378.667L160.667 378.333z"/>
<path style="fill:#929292; stroke:none;" d="M83.3333 379.667L83.6667 380.333L83.3333 379.667z"/>
<path style="fill:#6e6e6e; stroke:none;" d="M107.333 380.667L107.667 381.333L107.333 380.667z"/>
<path style="fill:#787878; stroke:none;" d="M143.667 382.333L144.333 382.667L143.667 382.333z"/>
<path style="fill:#7d7d7d; stroke:none;" d="M126.667 386.333L127.333 386.667L126.667 386.333z"/>
<path style="fill:#616161; stroke:none;" d="M122.667 387.333L123.333 387.667L122.667 387.333z"/>
<path style="fill:#ffffff; stroke:none;" d="M187.005 387.746C175.535 392.067 182.233 410.749 193.985 405.987C205.366 401.375 198.739 383.325 187.005 387.746z"/>
<path style="fill:#9c9c9c; stroke:none;" d="M109.333 388.667L109.667 389.333L109.333 388.667z"/>
<path style="fill:#7d7d7d; stroke:none;" d="M180 395L180 399L181 399L180 395z"/>
<path style="fill:#828282; stroke:none;" d="M88.3333 400.667L88.6667 401.333L88.3333 400.667z"/>
<path style="fill:#787878; stroke:none;" d="M240.667 416.333L241.333 416.667L240.667 416.333z"/>
<path style="fill:#616161; stroke:none;" d="M208.667 418.333L209.333 418.667L208.667 418.333z"/>
<path style="fill:#969696; stroke:none;" d="M232.667 418.333L233.333 418.667L232.667 418.333z"/>
<path style="fill:#6e6e6e; stroke:none;" d="M216.667 420.333L217.333 420.667L216.667 420.333z"/>
<path style="fill:#8c8c8c; stroke:none;" d="M202.667 425.333L203.333 425.667L202.667 425.333z"/>
<path style="fill:#5d5d5d; stroke:none;" d="M174.667 426.333L175.333 426.667L174.667 426.333z"/>
<path style="fill:#969696; stroke:none;" d="M198.667 426.333L199.333 426.667L198.667 426.333z"/>
<path style="fill:#6e6e6e; stroke:none;" d="M157 430L157 431L160 431L157 430M176.667 431.333L177.333 431.667L176.667 431.333z"/>
<path style="fill:#878787; stroke:none;" d="M168.667 433.333L169.333 433.667L168.667 433.333z"/>
<path style="fill:#6e6e6e; stroke:none;" d="M136.667 435.333L137.333 435.667L136.667 435.333z"/>
<path style="fill:#6a6a6a; stroke:none;" d="M122 436L122 437L126 437L122 436z"/>
<path style="fill:#787878; stroke:none;" d="M138.667 440.333L139.333 440.667L138.667 440.333z"/>
<path style="fill:#8c8c8c; stroke:none;" d="M134.667 441.333L135.333 441.667L134.667 441.333z"/>
</svg>
